# xmcd
#
# Track frame offsets:
#	150
#	30719
#	57646
#	84902
#	113039
#	149838
#	186143
#	204966
#	237278
#	270907
#
# Disc length: 3994 seconds
#
# Revision: 0
# Processed by: cddbd v1.5.2PL0 Copyright (c) Steve Scherf et al.
# Submitted via: audiograbber 1.83.01
#
DISCID=880f980a
DTITLE=Grateful Dead - 93-03-14 Richfield Coliseum, Richfield OH
DYEAR=1900
DGENRE=
TTITLE0=Cold Rain and Snow
TTITLE1=Walkin' Blues
TTITLE2=Brown Eyed Women
TTITLE3=Just Like Tom Thumb's Blues
TTITLE4=Lazy River Road
TTITLE5=Eternity
TTITLE6=Don't Ease Me In
TTITLE7=Touch Of Grey
TTITLE8=Samson and Delilah
TTITLE9=Long Way To Go Home
EXTD=
EXTT0=
EXTT1=
EXTT2=
EXTT3=
EXTT4=
EXTT5=
EXTT6=
EXTT7=
EXTT8=
EXTT9=
PLAYORDER=
